<mxfile host="app.diagrams.net">
  <diagram name="Jira-ya ERD">
    <mxGraphModel dx="1000" dy="1000" grid="1" gridSize="10" guides="1" tooltips="1" connect="1" arrows="1" fold="1" page="1" pageScale="1" pageWidth="827" pageHeight="1169" math="0" shadow="0">
      <root>
        <mxCell id="0" />
        <mxCell id="1" parent="0" />
        <!-- User Entity -->
        <mxCell id="2" value="User" style="swimlane;html=1;" vertex="1" parent="1">
          <mxGeometry x="60" y="60" width="180" height="120" as="geometry" />
        </mxCell>
 Name: string
 Email: string" style="text;html=1;align=left;verticalAlign=top;whiteSpace=wrap;rounded=0;" vertex="1" parent="2">
        <mxCell id="3" value="+ Id: Guid
 Username: string
 Email: string" style="text;html=1;align=left;verticalAlign=top;whiteSpace=wrap;rounded=0;" vertex="1" parent="2">
+ Name: string
+ Email: string" style="text;html=1;align=left;verticalAlign=top;whiteSpace=wrap;rounded=0;" vertex="1" parent="2">
          <mxGeometry x="10" y="30" width="160" height="80" as="geometry" />
        </mxCell>
        <!-- Task Entity -->
        <mxCell id="4" value="Task" style="swimlane;html=1;" vertex="1" parent="1">
          <mxGeometry x="320" y="60" width="220" height="160" as="geometry" />
        </mxCell>
        <mxCell id="5" value="+ Id: Guid
+ Title: string
+ Description: string
+ DueDate: DateTime
+ Status: TaskStatus
+ AssignedUserId: Guid" style="text;html=1;align=left;verticalAlign=top;whiteSpace=wrap;rounded=0;" vertex="1" parent="4">
          <mxGeometry x="10" y="30" width="200" height="120" as="geometry" />
        </mxCell>
        <!-- Relationship: Task.AssignedUserId -> User.Id -->
        <mxCell id="6" style="edgeStyle=orthogonalEdgeStyle;rounded=0;orthogonalLoop=1;jettySize=auto;html=1;endArrow=block;endFill=1;" edge="1" parent="1" source="4" target="2">
          <mxGeometry relative="1" as="geometry" />
        </mxCell>
        <!-- TaskStatus Enum -->
        <mxCell id="7" value="TaskStatus (enum)
- Pending
- InProgress
- Completed
- Cancelled" style="rounded=1;whiteSpace=wrap;html=1;fillColor=#e1e5ea;" vertex="1" parent="1">
          <mxGeometry x="320" y="250" width="220" height="90" as="geometry" />
        </mxCell>
      </root>
    </mxGraphModel>
  </diagram>
</mxfile>
